#!OML:ASF \\sashay\E\Suitcase\Project 1\Capture day 1\Session 1\Male1.ASF
:FULLY-SPECIFIED
:DEGREES
249
root 0.969132 17.3067 -32.0373 8.2225 -1.14282 -5.70243
lowerback 3.25334 0.691994 4.18579
upperback 1.58369 1.04747 1.45141
thorax -0.148817 0.539103 -0.890255
lowerneck -19.1562 -0.547061 -4.93081
upperneck 11.1298 0.208704 2.21746
head 6.49779 0.0790243 1.53547
rclavicle -4.42296e-015 -5.1684e-015
rhumerus -31.3541 -26.4268 -70.5147
rradius 19.2386
rwrist -2.26323
rhand -13.306 22.3173
rfingers 7.12502
rthumb 12.7982 -7.27041
lclavicle -4.42296e-015 -5.1684e-015
lhumerus -41.0351 12.3234 76.4074
lradius 32.9662
lwrist -6.01608
lhand -0.610426 41.4722
lfingers 7.12502
lthumb 25.0056 69.8556
rfemur 13.5584 4.9048 30.7336
rtibia -6.36111e-015
rfoot -12.1525 -4.2842
rtoes 8.76592
lfemur -35.7598 -2.94688 -13.2401
ltibia 26.5957
lfoot -9.86077 1.02506
ltoes 5.59963
250
root 0.98933 17.3151 -31.9385 8.33613 -1.41898 -5.2845
lowerback 3.18801 0.738042 3.80231
upperback 1.62571 1.09203 1.23232
thorax -0.0705906 0.561963 -0.900749
lowerneck -19.4713 -0.535444 -4.78961
upperneck 11.2598 0.195447 2.26481
head 6.59171 0.0831211 1.5287
rclavicle 1.73937e-016 -2.28602e-015
rhumerus -31.3858 -26.5372 -70.5851
rradius 19.2732
rwrist -2.1391
rhand -13.3305 22.6396
rfingers 7.12502
rthumb 12.7746 -6.9496
lclavicle 1.73937e-016 -2.28602e-015
lhumerus -40.7418 12.4374 76.2653
lradius 32.7712
lwrist -6.04946
lhand -0.546418 41.9523
lfingers 7.12502
lthumb 25.0669 70.3272
rfemur 13.7856 5.1169 30.1456
rtibia 8.26944e-014
rfoot -12.0419 -4.13284
rtoes 8.8675
lfemur -35.4927 -2.77836 -13.8795
ltibia 26.3026
lfoot -9.30348 1.87605
ltoes 3.15104
251
root 1.01499 17.3282 -31.8406 8.55638 -1.23645 -4.98868
lowerback 2.99531 0.566717 3.75179
upperback 1.52641 0.855597 1.0539
thorax -0.0731457 0.443219 -1.04679
lowerneck -19.8148 -0.379287 -4.37031
upperneck 11.6258 0.403729 1.67713
head 6.76169 0.145853 1.29621
rclavicle 1.70955e-014 -1.49089e-015
rhumerus -31.5369 -26.1188 -70.9131
rradius 19.6643
rwrist -2.43074
rhand -13.1034 22.8119
rfingers 7.12502
rthumb 12.9935 -6.76342
lclavicle 1.70955e-014 -1.49089e-015
lhumerus -40.7427 13.1457 75.7328
lradius 32.3449
lwrist -6.60568
lhand -0.977383 41.6609
lfingers 7.12502
lthumb 24.6539 70.0929
rfemur 13.874 4.9112 29.771
rtibia -2.54444e-014
rfoot -11.6538 -4.3233
rtoes 7.2599
lfemur -35.4493 -3.18317 -14.2063
ltibia 26.1646
lfoot -9.18233 2.19985
ltoes 3.55002
252
root 1.04015 17.3347 -31.7368 8.62752 -1.28444 -4.91598
lowerback 2.9717 0.575385 3.80116
upperback 1.4773 0.868457 0.974996
thorax -0.107725 0.449052 -1.15575
lowerneck -19.7792 -0.500024 -4.08196
upperneck 11.7522 0.209755 1.37958
head 6.80407 0.036923 1.13122
rclavicle 6.95746e-015 -3.97569e-015
rhumerus -31.7879 -26.0084 -70.7816
rradius 19.8048
rwrist -2.43186
rhand -12.8319 22.6777
rfingers 7.12502
rthumb 13.2553 -6.88078
lclavicle 6.95746e-015 -3.97569e-015
lhumerus -40.6978 13.223 75.6184
lradius 32.1236
lwrist -6.71075
lhand -1.08288 41.3334
lfingers 7.12502
lthumb 24.5528 69.7791
rfemur 14.131 4.94024 29.5606
rtibia -1.90833e-014
rfoot -11.422 -4.19438
rtoes 7.97954
lfemur -35.117 -3.24681 -14.406
ltibia 26.0123
lfoot -8.89578 2.7525
ltoes 2.64399
253
root 1.05474 17.352 -31.6288 8.65844 -1.24541 -4.69078
lowerback 3.0056 0.486655 3.6092
upperback 1.40039 0.748756 0.86365
thorax -0.212652 0.386229 -1.16012
lowerneck -19.6593 -0.284971 -4.22556
upperneck 11.7109 0.506637 1.5402
head 6.76155 0.188064 1.23976
rclavicle -2.68359e-015 -6.16232e-015
rhumerus -31.9717 -26.5335 -70.6123
rradius 19.7
rwrist -1.74563
rhand -12.9943 22.6354
rfingers 7.12502
rthumb 13.0986 -6.93329
lclavicle -2.68359e-015 -6.16232e-015
lhumerus -40.8666 13.209 75.4047
lradius 32.1232
lwrist -6.47922
lhand -1.05747 41.0765
lfingers 7.12502
lthumb 24.5771 69.519
rfemur 14.4808 4.84902 29.2743
rtibia -5.40694e-014
rfoot -10.8582 -4.3253
rtoes 5.85442
lfemur -34.7454 -2.25838 -15.1304
ltibia 26.0488
lfoot -8.45936 1.87084
ltoes 3.07325
254
root 1.08678 17.3624 -31.5174 8.69391 -1.12713 -4.17062
lowerback 2.82742 0.421437 3.30745
upperback 1.42313 0.644927 0.672563
thorax -0.0959902 0.335733 -1.18229
lowerneck -19.4958 -0.240298 -4.50876
upperneck 11.5789 0.600089 1.75581
head 6.68735 0.240879 1.36462
rclavicle 8.00108e-015 -1.98785e-016
rhumerus -32.1441 -25.9424 -70.763
rradius 20.0577
rwrist -2.46585
rhand -12.6407 22.6987
rfingers 7.12502
rthumb 13.4396 -6.84776
lclavicle 8.00108e-015 -1.98785e-016
lhumerus -40.7101 13.4689 75.2561
lradius 31.8787
lwrist -6.74955
lhand -1.03594 40.8194
lfingers 7.12502
lthumb 24.5978 69.259
rfemur 14.7596 4.6546 28.5768
rtibia -9.54166e-015
rfoot -10.5114 -4.28452
rtoes 5.12318
lfemur -34.3908 -2.47563 -15.8312
ltibia 26.1663
lfoot -8.31948 2.36287
ltoes 0.928819
255
root 1.10605 17.3642 -31.4086 8.79407 -1.14383 -4.0268
lowerback 2.72005 0.325428 3.23
upperback 1.40233 0.510961 0.566617
thorax -0.0630533 0.269079 -1.24316
lowerneck -19.6864 -0.128468 -4.23833
upperneck 11.787 0.727985 1.50605
head 6.7842 0.289902 1.25614
rclavicle 2.48481e-015 -3.18055e-015
rhumerus -32.1854 -26.0704 -70.7783
rradius 20.005
rwrist -2.15782
rhand -12.695 22.9371
rfingers 7.12502
rthumb 13.3872 -6.61276
lclavicle 2.48481e-015 -3.18055e-015
lhumerus -40.7734 13.5438 75.0999
lradius 32.0815
lwrist -6.66929
lhand -0.6601 41.8789
lfingers 7.12502
lthumb 24.958 70.269
rfemur 15.0753 4.64362 28.3337
rtibia -4.13472e-014
rfoot -9.76484 -4.2495
rtoes 5.4775
lfemur -34.2403 -2.1497 -16.2115
ltibia 26.3537
lfoot -8.07315 2.17802
ltoes 0.164697
256
root 1.12233 17.3822 -31.3131 8.85202 -0.846606 -4.14853
lowerback 2.76828 0.196285 3.37604
upperback 1.3582 0.34582 0.61553
thorax -0.142057 0.185467 -1.27081
lowerneck -19.6926 -0.136875 -4.12091
upperneck 11.8261 0.708475 1.3644
head 6.79964 0.272417 1.18905
rclavicle 1.71949e-014 4.17448e-015
rhumerus -32.4695 -26.8284 -70.2546
rradius 19.8803
rwrist -1.43378
rhand -12.2909 23.5586
rfingers 7.12502
rthumb 13.7766 -5.96531
lclavicle 1.71949e-014 4.17448e-015
lhumerus -40.7058 13.6875 74.9703
lradius 31.9486
lwrist -6.82636
lhand -0.462751 42.2519
lfingers 7.12502
lthumb 25.1471 70.6156
rfemur 15.3312 4.35943 28.3937
rtibia -4.13472e-014
rfoot -9.32313 -4.08052
rtoes 4.38865
lfemur -33.9684 -1.81795 -16.2658
ltibia 26.3292
lfoot -8.29962 1.28394
ltoes 0.82663
257
root 1.14002 17.4048 -31.219 8.89874 -0.259063 -3.87693
lowerback 2.91047 0.00803719 3.11673
upperback 1.26696 0.0967848 0.615286
thorax -0.327677 0.0565148 -1.11924
lowerneck -19.7195 -0.122453 -3.9629
upperneck 12.0144 0.739864 1.04486
head 6.86699 0.26286 1.06396
rclavicle 5.36719e-015 -4.17448e-015
rhumerus -32.5739 -26.5609 -70.1764
rradius 19.8955
rwrist -1.76171
rhand -11.8851 24.0183
rfingers 7.12502
rthumb 14.1677 -5.47859
lclavicle 5.36719e-015 -4.17448e-015
lhumerus -40.5357 13.7824 74.9882
lradius 31.6896
lwrist -6.83617
lhand -0.738185 42.1485
lfingers 7.12502
lthumb 24.8831 70.5489
rfemur 15.5187 3.73565 28.0692
rtibia 1.27222e-014
rfoot -8.52186 -3.95041
rtoes 4.75827
lfemur -33.718 -1.7616 -16.7354
ltibia 26.3631
lfoot -8.54792 0.151075
ltoes 3.59405
258
root 1.16775 17.4092 -31.1079 8.82593 -0.0948344 -3.45855
lowerback 3.02358 -0.0207697 2.86154
upperback 1.2411 0.0551194 0.414082
thorax -0.419514 0.0339648 -1.18142
lowerneck -19.6465 -0.0463114 -3.72843
upperneck 11.9733 0.809388 0.840063
head 6.84167 0.288792 0.966666
rclavicle -5.81445e-015 1.25234e-014
rhumerus -32.9367 -26.6906 -70.0264
rradius 20.082
rwrist -1.72884
rhand -12.0878 23.2792
rfingers 7.12502
rthumb 13.9724 -6.23126
lclavicle -5.81445e-015 1.25234e-014
lhumerus -40.4847 13.6561 74.8713
lradius 31.6499
lwrist -6.8691
lhand -0.545302 41.9081
lfingers 7.12502
lthumb 25.068 70.2828
rfemur 15.8831 3.49768 27.4707
rtibia 4.13472e-014
rfoot -7.71198 -3.84314
rtoes 3.47457
lfemur -33.3611 -1.89443 -17.3404
ltibia 26.3274
lfoot -8.71421 -0.371894
ltoes 3.86901
259
root 1.19383 17.4207 -30.9974 8.85322 -0.0844901 -3.00843
lowerback 3.05475 -0.0834105 2.55939
upperback 1.20386 -0.0362196 0.247235
thorax -0.479102 -0.013119 -1.18011
lowerneck -19.9033 0.00787477 -3.86294
upperneck 12.1409 0.927454 0.864078
head 6.93521 0.339184 1.01156
rclavicle -6.01324e-015 -5.96354e-016
rhumerus -33.187 -26.9676 -69.7575
rradius 20.023
rwrist -1.34047
rhand -11.7691 23.4192
rfingers 7.12502
rthumb 14.2795 -6.06981
lclavicle -6.01324e-015 -5.96354e-016
lhumerus -40.2216 13.8166 74.7371
lradius 31.2218
lwrist -7.21327
lhand -0.470725 41.7113
lfingers 7.12502
lthumb 25.1394 70.076
rfemur 16.2485 3.42075 26.8176
rtibia -5.08889e-014
rfoot -6.7678 -3.63655
rtoes 2.95245
lfemur -32.9283 -1.87253 -17.97
ltibia 26.243
lfoot -8.9811 -0.987291
ltoes 8.07708
260
root 1.21116 17.4406 -30.8928 9.06777 0.244278 -3.0388
lowerback 2.8481 -0.217605 2.65854
upperback 1.12595 -0.217373 0.244443
thorax -0.450803 -0.103744 -1.23279
lowerneck -19.9854 0.103436 -3.84609
upperneck 12.2916 1.05022 0.900792
head 6.99478 0.400442 1.0363
rclavicle -9.44227e-015 -3.77691e-015
rhumerus -33.3357 -26.7041 -69.7957
rradius 20.099
rwrist -1.48399
rhand -11.6019 23.8742
rfingers 7.12502
rthumb 14.4406 -5.60337
lclavicle -9.44227e-015 -3.77691e-015
lhumerus -40.2019 13.5481 74.7933
lradius 31.4295
lwrist -6.85443
lhand -0.91185 41.0004
lfingers 7.12502
lthumb 24.7167 69.4237
rfemur 14.7939 3.08283 26.7577
rtibia 2.96759
rfoot -7.36722 -3.2646
rtoes 2.23371
lfemur -32.6969 -2.17729 -17.9294
ltibia 26.0581
lfoot -8.9605 -1.46054
ltoes 8.96712
